<svg xmlns="http://www.w3.org/2000/svg" xmlns:xlink="http://www.w3.org/1999/xlink" width="318" zoomAndPan="magnify" viewBox="0 0 238.5 79.499998" height="106" preserveAspectRatio="xMidYMid meet" version="1.2"><defs><clipPath id="bdb74f665c"><path d="M 0.496094 0 L 237.507812 0 L 237.507812 79.003906 L 0.496094 79.003906 Z M 0.496094 0 "/></clipPath><clipPath id="05161bac5e"><path d="M 18 11 L 26 11 L 26 79.003906 L 18 79.003906 Z M 18 11 "/></clipPath></defs><g id="ee3671cbf8"><g clip-rule="nonzero" clip-path="url(#bdb74f665c)"><path style=" stroke:none;fill-rule:nonzero;fill:#ffffff;fill-opacity:1;" d="M 0.496094 0 L 237.507812 0 L 237.507812 79.003906 L 0.496094 79.003906 Z M 0.496094 0 "/></g><g style="fill:#ff66c4;fill-opacity:1;"><g transform="translate(38.926999, 53.658837)"><path style="stroke:none" d="M 21.0625 0 L 19.953125 -13.890625 L 19.8125 -13.890625 L 15.015625 -0.140625 L 11.84375 -0.140625 L 7.046875 -13.890625 L 6.90625 -13.890625 L 5.796875 0 L 0.453125 0 L 2.5625 -23.421875 L 8.234375 -23.421875 L 13.421875 -9.90625 L 18.625 -23.421875 L 24.296875 -23.421875 L 26.40625 0 Z M 21.0625 0 "/></g></g><g style="fill:#ff66c4;fill-opacity:1;"><g transform="translate(63.361274, 53.658837)"><path style="stroke:none" d="M 3.078125 -1.734375 C 1.460938 -3.171875 0.65625 -5.015625 0.65625 -7.265625 C 0.65625 -9.515625 1.492188 -11.363281 3.171875 -12.8125 C 4.859375 -14.257812 6.941406 -14.984375 9.421875 -14.984375 C 11.867188 -14.984375 13.925781 -14.253906 15.59375 -12.796875 C 17.269531 -11.347656 18.109375 -9.503906 18.109375 -7.265625 C 18.109375 -5.035156 17.289062 -3.195312 15.65625 -1.75 C 14.019531 -0.300781 11.941406 0.421875 9.421875 0.421875 C 6.804688 0.421875 4.691406 -0.296875 3.078125 -1.734375 Z M 6.96875 -9.734375 C 6.3125 -9.085938 5.984375 -8.265625 5.984375 -7.265625 C 5.984375 -6.265625 6.296875 -5.445312 6.921875 -4.8125 C 7.546875 -4.175781 8.367188 -3.859375 9.390625 -3.859375 C 10.378906 -3.859375 11.191406 -4.179688 11.828125 -4.828125 C 12.460938 -5.472656 12.78125 -6.285156 12.78125 -7.265625 C 12.78125 -8.265625 12.453125 -9.085938 11.796875 -9.734375 C 11.140625 -10.378906 10.335938 -10.703125 9.390625 -10.703125 C 8.429688 -10.703125 7.625 -10.378906 6.96875 -9.734375 Z M 6.96875 -9.734375 "/></g></g><g style="fill:#ff66c4;fill-opacity:1;"><g transform="translate(79.707233, 53.658837)"><path style="stroke:none" d="M 5.390625 -14.5625 L 8.9375 -6.640625 L 12.484375 -14.5625 L 18.453125 -14.5625 L 10.640625 0 L 7.234375 0 L -0.5625 -14.5625 Z M 5.390625 -14.5625 "/></g></g><g style="fill:#ff66c4;fill-opacity:1;"><g transform="translate(95.17341, 53.658837)"><path style="stroke:none" d="M 2.1875 -22.671875 C 2.769531 -23.265625 3.46875 -23.5625 4.28125 -23.5625 C 5.09375 -23.5625 5.789062 -23.265625 6.375 -22.671875 C 6.96875 -22.085938 7.265625 -21.390625 7.265625 -20.578125 C 7.265625 -19.765625 6.96875 -19.066406 6.375 -18.484375 C 5.789062 -17.898438 5.09375 -17.609375 4.28125 -17.609375 C 3.46875 -17.609375 2.769531 -17.898438 2.1875 -18.484375 C 1.601562 -19.066406 1.3125 -19.765625 1.3125 -20.578125 C 1.3125 -21.390625 1.601562 -22.085938 2.1875 -22.671875 Z M 1.703125 -14.5625 L 1.703125 0 L 6.734375 0 L 6.734375 -14.5625 Z M 1.703125 -14.5625 "/></g></g><g style="fill:#ff66c4;fill-opacity:1;"><g transform="translate(101.330926, 53.658837)"><path style="stroke:none" d="M 16.4375 -6.59375 L 5.875 -6.59375 C 5.875 -5.5625 6.203125 -4.800781 6.859375 -4.3125 C 7.523438 -3.820312 8.25 -3.578125 9.03125 -3.578125 C 9.84375 -3.578125 10.484375 -3.6875 10.953125 -3.90625 C 11.429688 -4.125 11.972656 -4.554688 12.578125 -5.203125 L 16.21875 -3.375 C 14.695312 -0.84375 12.175781 0.421875 8.65625 0.421875 C 6.457031 0.421875 4.570312 -0.328125 3 -1.828125 C 1.4375 -3.335938 0.65625 -5.148438 0.65625 -7.265625 C 0.65625 -9.390625 1.4375 -11.207031 3 -12.71875 C 4.570312 -14.226562 6.457031 -14.984375 8.65625 -14.984375 C 10.96875 -14.984375 12.847656 -14.316406 14.296875 -12.984375 C 15.742188 -11.648438 16.46875 -9.742188 16.46875 -7.265625 C 16.46875 -6.921875 16.457031 -6.695312 16.4375 -6.59375 Z M 6.015625 -9.375 L 11.5625 -9.375 C 11.445312 -10.125 11.144531 -10.703125 10.65625 -11.109375 C 10.175781 -11.515625 9.554688 -11.71875 8.796875 -11.71875 C 7.960938 -11.71875 7.300781 -11.5 6.8125 -11.0625 C 6.320312 -10.632812 6.054688 -10.070312 6.015625 -9.375 Z M 6.015625 -9.375 "/></g></g><g style="fill:#ff66c4;fill-opacity:1;"><g transform="translate(116.030843, 53.658837)"><path style="stroke:none" d="M 19.671875 0 L 15.921875 -13.140625 L 12.171875 0 L 6.25 0 L -0.421875 -23.421875 L 5.5 -23.421875 L 9.515625 -7.359375 L 9.65625 -7.359375 L 13.90625 -23.421875 L 17.9375 -23.421875 L 22.203125 -7.359375 L 22.34375 -7.359375 L 26.34375 -23.421875 L 32.25 -23.421875 L 25.578125 0 Z M 19.671875 0 "/></g></g><g style="fill:#ff66c4;fill-opacity:1;"><g transform="translate(145.431631, 53.658837)"><path style="stroke:none" d="M 3.078125 -1.734375 C 1.460938 -3.171875 0.65625 -5.015625 0.65625 -7.265625 C 0.65625 -9.515625 1.492188 -11.363281 3.171875 -12.8125 C 4.859375 -14.257812 6.941406 -14.984375 9.421875 -14.984375 C 11.867188 -14.984375 13.925781 -14.253906 15.59375 -12.796875 C 17.269531 -11.347656 18.109375 -9.503906 18.109375 -7.265625 C 18.109375 -5.035156 17.289062 -3.195312 15.65625 -1.75 C 14.019531 -0.300781 11.941406 0.421875 9.421875 0.421875 C 6.804688 0.421875 4.691406 -0.296875 3.078125 -1.734375 Z M 6.96875 -9.734375 C 6.3125 -9.085938 5.984375 -8.265625 5.984375 -7.265625 C 5.984375 -6.265625 6.296875 -5.445312 6.921875 -4.8125 C 7.546875 -4.175781 8.367188 -3.859375 9.390625 -3.859375 C 10.378906 -3.859375 11.191406 -4.179688 11.828125 -4.828125 C 12.460938 -5.472656 12.78125 -6.285156 12.78125 -7.265625 C 12.78125 -8.265625 12.453125 -9.085938 11.796875 -9.734375 C 11.140625 -10.378906 10.335938 -10.703125 9.390625 -10.703125 C 8.429688 -10.703125 7.625 -10.378906 6.96875 -9.734375 Z M 6.96875 -9.734375 "/></g></g><g style="fill:#ff66c4;fill-opacity:1;"><g transform="translate(161.777589, 53.658837)"><path style="stroke:none" d="M 1.703125 0 L 1.703125 -14.5625 L 6.734375 -14.5625 L 6.734375 -12.46875 L 6.78125 -12.46875 C 6.820312 -12.539062 6.882812 -12.632812 6.96875 -12.75 C 7.050781 -12.863281 7.234375 -13.0625 7.515625 -13.34375 C 7.804688 -13.625 8.113281 -13.878906 8.4375 -14.109375 C 8.757812 -14.335938 9.175781 -14.539062 9.6875 -14.71875 C 10.195312 -14.894531 10.71875 -14.984375 11.25 -14.984375 C 11.789062 -14.984375 12.328125 -14.90625 12.859375 -14.75 C 13.390625 -14.601562 13.78125 -14.457031 14.03125 -14.3125 L 14.421875 -14.078125 L 12.328125 -9.828125 C 11.703125 -10.359375 10.828125 -10.625 9.703125 -10.625 C 9.097656 -10.625 8.578125 -10.488281 8.140625 -10.21875 C 7.710938 -9.957031 7.40625 -9.632812 7.21875 -9.25 C 7.039062 -8.875 6.914062 -8.550781 6.84375 -8.28125 C 6.769531 -8.019531 6.734375 -7.816406 6.734375 -7.671875 L 6.734375 0 Z M 1.703125 0 "/></g></g><g style="fill:#ff66c4;fill-opacity:1;"><g transform="translate(173.497598, 53.658837)"><path style="stroke:none" d="M 1.703125 0 L 1.703125 -24.421875 L 6.734375 -24.421875 L 6.734375 0 Z M 1.703125 0 "/></g></g><g style="fill:#ff66c4;fill-opacity:1;"><g transform="translate(179.513219, 53.658837)"><path style="stroke:none" d="M 2.6875 -1.796875 C 1.332031 -3.285156 0.65625 -5.109375 0.65625 -7.265625 C 0.65625 -9.421875 1.332031 -11.242188 2.6875 -12.734375 C 4.050781 -14.234375 5.785156 -14.984375 7.890625 -14.984375 C 9.816406 -14.984375 11.40625 -14.378906 12.65625 -13.171875 L 12.65625 -24.421875 L 17.6875 -24.421875 L 17.6875 0 L 12.71875 0 L 12.71875 -1.640625 L 12.65625 -1.640625 C 11.40625 -0.265625 9.816406 0.421875 7.890625 0.421875 C 5.785156 0.421875 4.050781 -0.316406 2.6875 -1.796875 Z M 6.96875 -9.734375 C 6.3125 -9.085938 5.984375 -8.265625 5.984375 -7.265625 C 5.984375 -6.265625 6.296875 -5.445312 6.921875 -4.8125 C 7.546875 -4.175781 8.367188 -3.859375 9.390625 -3.859375 C 10.378906 -3.859375 11.191406 -4.179688 11.828125 -4.828125 C 12.460938 -5.472656 12.78125 -6.285156 12.78125 -7.265625 C 12.78125 -8.265625 12.453125 -9.085938 11.796875 -9.734375 C 11.140625 -10.378906 10.335938 -10.703125 9.390625 -10.703125 C 8.429688 -10.703125 7.625 -10.378906 6.96875 -9.734375 Z M 6.96875 -9.734375 "/></g></g><path style="fill:none;stroke-width:10;stroke-linecap:butt;stroke-linejoin:miter;stroke:#5ce1e6;stroke-opacity:1;stroke-miterlimit:4;" d="M 0.00192939 5.002622 L 84.433294 5.002622 " transform="matrix(0.741588,0,0,0.741588,17.967319,70.97371)"/><g clip-rule="nonzero" clip-path="url(#05161bac5e)"><path style="fill:none;stroke-width:10;stroke-linecap:butt;stroke-linejoin:miter;stroke:#5ce1e6;stroke-opacity:1;stroke-miterlimit:4;" d="M 0.000868009 4.999461 L 82.461375 4.999461 " transform="matrix(0,0.741217,-0.741217,0,25.41662,14.733732)"/></g><path style="fill:none;stroke-width:10;stroke-linecap:butt;stroke-linejoin:miter;stroke:#5ce1e6;stroke-opacity:1;stroke-miterlimit:4;" d="M -0.00173995 4.999004 L 84.434892 4.999004 " transform="matrix(-0.741588,0,0,-0.741588,221.014335,7.445482)"/><path style="fill:none;stroke-width:10;stroke-linecap:butt;stroke-linejoin:miter;stroke:#5ce1e6;stroke-opacity:1;stroke-miterlimit:4;" d="M 0.00251169 4.997875 L 82.463019 4.997875 " transform="matrix(0,-0.741217,0.741217,0,213.565024,63.685455)"/></g></svg>